# xmcd
# Track frame offsets:
# 150
# 12112
# 21765
#
# Disc length: 489 seconds
# Revision: 0
# Processed by: cddbd v1.5.2PL0 Copyright (c) Steve Scherf et al.
# Submitted via: VisiTrax 2.9.5.181 - For more info visit www.synapsa.com
#
DISCID=1501e703
DTITLE=Blue Light - Demo
DYEAR=2002
DGENRE=Blues
TTITLE0=Demo
TTITLE1=Demo
TTITLE2=Demo
EXTD=
EXTT0=
EXTT1=
EXTT2=
PLAYORDER=
